<svg width="32" height="31" viewBox="0 0 32 31" fill="none" xmlns="http://www.w3.org/2000/svg">
<g clip-path="url(#clip0_67_555)">
<path d="M16.0729 0C7.5126 0 0.572937 6.93966 0.572937 15.5C0.572937 22.7689 5.57758 28.8684 12.3288 30.5437V20.2368H9.13266V15.5H12.3288V13.459C12.3288 8.18338 14.7164 5.7381 19.8959 5.7381C20.8779 5.7381 22.5724 5.93092 23.2656 6.12312V10.4166C22.8998 10.3782 22.2643 10.359 21.475 10.359C18.9336 10.359 17.9515 11.3218 17.9515 13.8248V15.5H23.0145L22.1446 20.2368H17.9515V30.8865C25.6265 29.9596 31.5736 23.4248 31.5736 15.5C31.5729 6.93966 24.6333 0 16.0729 0Z" fill="#3A4A5A"/>
</g>
<defs>
<clipPath id="clip0_67_555">
<rect width="31" height="31" fill="white" transform="translate(0.572937)"/>
</clipPath>
</defs>
</svg>
