<svg width="32" height="31" viewBox="0 0 32 31" fill="none" xmlns="http://www.w3.org/2000/svg">
<g clip-path="url(#clip0_67_557)">
<path fill-rule="evenodd" clip-rule="evenodd" d="M15.8722 0C7.29401 0 0.359375 6.98576 0.359375 15.6281C0.359375 22.5364 4.80263 28.3841 10.9666 30.4538C11.7373 30.6094 12.0196 30.1175 12.0196 29.7038C12.0196 29.3414 11.9942 28.0996 11.9942 26.8056C7.67886 27.7373 6.78024 24.9426 6.78024 24.9426C6.08674 23.1314 5.0592 22.6659 5.0592 22.6659C3.64681 21.7086 5.16208 21.7086 5.16208 21.7086C6.7288 21.8121 7.55089 23.3127 7.55089 23.3127C8.93757 25.693 11.1721 25.0204 12.071 24.6064C12.1993 23.5972 12.6105 22.8987 13.0471 22.5106C9.60534 22.1483 5.98418 20.8029 5.98418 14.8C5.98418 13.0923 6.6002 11.6951 7.5763 10.6085C7.42229 10.2205 6.8828 8.61598 7.73062 6.46849C7.73062 6.46849 9.04045 6.05443 11.9938 8.07268C13.2583 7.73059 14.5623 7.55656 15.8722 7.5551C17.182 7.5551 18.5173 7.73641 19.7502 8.07268C22.704 6.05443 24.0138 6.46849 24.0138 6.46849C24.8616 8.61598 24.3218 10.2205 24.1678 10.6085C25.1696 11.6951 25.7602 13.0923 25.7602 14.8C25.7602 20.8029 22.1391 22.1223 18.6716 22.5106C19.2368 23.0022 19.7245 23.9335 19.7245 25.4085C19.7245 27.5042 19.6991 29.1862 19.6991 29.7034C19.6991 30.1175 19.9817 30.6094 20.7521 30.4541C26.916 28.3838 31.3593 22.5364 31.3593 15.6281C31.3847 6.98576 24.4247 0 15.8722 0Z" fill="#3A4A5A"/>
</g>
<defs>
<clipPath id="clip0_67_557">
<rect width="31" height="31" fill="white" transform="translate(0.359375)"/>
</clipPath>
</defs>
</svg>
