<svg width="104" height="20" viewBox="0 0 104 20" fill="none" xmlns="http://www.w3.org/2000/svg">
<path d="M92.0305 4.67848H95.5415V14.6088C95.5415 16.6728 95.8379 17.1086 96.9323 17.1086H100.466V4.67848H104V19.379H95.7923C93.0793 19.379 92.0305 18.347 92.0305 14.8611V4.67848Z" fill="#3A4A5A"/>
<path d="M86.4374 0H89.9712V19.379H81.9916C79.3014 19.379 78.207 17.9112 78.207 14.2418V9.81563C78.207 6.14624 79.3014 4.67848 81.9916 4.67848H86.4374V0ZM81.6725 9.49456V12.9805C81.6725 16.6499 82.174 17.1086 84.2487 17.1086H86.4374V6.99478H83.1088C82.0828 6.99478 81.6725 7.47639 81.6725 9.49456Z" fill="#3A4A5A"/>
<path d="M67.7121 4.67848H72.591C75.1901 4.67848 76.3756 5.9169 76.3756 9.47163V14.5629C76.3756 18.1406 75.2357 19.379 72.591 19.379H67.7121C64.9534 19.379 63.9047 18.1406 63.9047 14.5629V9.47163C63.9047 5.9169 64.9534 4.67848 67.7121 4.67848ZM67.4841 9.47163V14.517C67.4841 16.3288 67.8489 17.1086 68.8748 17.1086H71.3827C72.4542 17.1086 72.7734 16.3288 72.7734 14.5629V9.47163C72.7734 7.7516 72.4542 6.99479 71.3827 6.99479H68.8748C67.8489 6.99479 67.4841 7.7516 67.4841 9.47163Z" fill="#3A4A5A"/>
<path d="M50.1039 4.67848H58.5166C61.2753 4.67848 62.324 5.73343 62.324 9.21936V19.379H59.2462V9.47163C59.2462 7.49933 58.8814 6.99479 57.8555 6.99479H57.3083V19.379H54.9144V6.99479H53.2957V19.379H50.1039V4.67848Z" fill="#3A4A5A"/>
<path d="M39.8369 4.67848H44.7159C47.315 4.67848 48.5005 5.9169 48.5005 9.47163V14.5629C48.5005 18.1406 47.3606 19.379 44.7159 19.379H39.8369C37.0783 19.379 36.0295 18.1406 36.0295 14.5629V9.47163C36.0295 5.9169 37.0783 4.67848 39.8369 4.67848ZM39.609 9.47163V14.517C39.609 16.3288 39.9737 17.1086 40.9997 17.1086H43.5076C44.5791 17.1086 44.8983 16.3288 44.8983 14.5629V9.47163C44.8983 7.7516 44.5791 6.99479 43.5076 6.99479H40.9997C39.9737 6.99479 39.609 7.7516 39.609 9.47163Z" fill="#3A4A5A"/>
<path d="M22.2288 0.848564H25.8082V7.91215H26.059L30.7783 0.848564H34.4489L28.9772 8.9671L34.4033 19.379H30.4819L26.0818 10.733L25.8082 10.7559V19.379H22.2288V0.848564Z" fill="#3A4A5A"/>
<rect x="9.73419" y="0.569977" width="9.35981" height="9.35981" rx="1.77836" fill="#3A4A5A"/>
<rect y="0.569977" width="9.35981" height="9.35981" rx="1.77836" fill="#A5B5C0"/>
<rect y="10.3042" width="9.35981" height="9.35981" rx="1.77836" fill="#A5B5C0"/>
<rect x="9.73419" y="10.3042" width="9.35981" height="9.35981" rx="1.77836" fill="#A5B5C0"/>
</svg>
